<svg xmlns="http://www.w3.org/2000/svg" width="560" height="420" xmlns:v="https://vecta.io/nano"><path d="M420 0v140H280V0z" fill="#f8fafb"/><path d="M560 0v140H420V0z" fill="#f2c643"/><path d="M280 0v140H140V0zm280 0h0-140v140h0c77.3 0 140-62.7 140-140z" fill="#05b3d7"/><path d="M490 0h0-70v70h0c38.7 0 70-31.3 70-70z" fill="#f2c643"/><circle transform="matrix(.7071 -.7071 .7071 .7071 12.0103 168.9949)" cx="210" cy="70" r="70" fill="#f8fafb"/><g fill="#1a5c96"><circle cx="350" cy="70" r="70"/><path d="M140 420H0V280h140z"/></g><path d="M140 280H0V140h140z" fill="#f8fafb"/><path d="M140 140H0V0h140z" fill="#f2c643"/><path d="M0 175l35-35H0zm0 35v35l105-105H70zm0 70l140-140v35L35 280zm70 0l70-70v35l-35 35z" fill="#05b3d7"/><path d="M70 420.006L-.003 350.003 70 280l70.003 70.003z" fill="#357ebf"/><path d="M140 0L70 70 0 0z" fill="#f8fafb"/></svg>