<svg xmlns="http://www.w3.org/2000/svg" width="121.8" height="36" xmlns:v="https://vecta.io/nano"><path d="M-.063 36.037v-36h36.1v36z" fill="#357ebf"/><path d="M-.1 36h0H36V0h0C16.1 0-.1 16.1-.1 36z" fill="#f8fafb"/><path d="M17.9 36h0 18V18h0c-9.9 0-18 8.1-18 18z" fill="#05b3d7"/><path d="M63.8 10.9c1.6 1.3 2.6 3 3.1 5.2H62c-.4-.9-.9-1.6-1.7-2.1-.7-.5-1.6-.8-2.7-.8-1.3 0-2.4.5-3.3 1.5-.8 1-1.2 2.3-1.2 4s.4 3 1.2 3.9c.8 1 1.9 1.5 3.3 1.5 1 0 1.9-.3 2.7-.8a5.51 5.51 0 0 0 1.7-2h4.9c-.5 2.2-1.5 3.9-3.1 5.2s-3.6 1.9-6 1.9c-1.9 0-3.5-.4-4.9-1.2s-2.5-2-3.3-3.4c-.8-1.5-1.1-3.2-1.1-5 0-1.9.4-3.6 1.1-5 .8-1.5 1.8-2.6 3.3-3.4 1.4-.8 3-1.2 4.9-1.2 2.4-.2 4.4.4 6 1.7zm6-3.7c.5-.5 1.2-.7 2-.7s1.5.2 2 .7.8 1 .8 1.7-.3 1.3-.8 1.7c-.5.5-1.2.7-2 .7s-1.5-.2-2-.7-.8-1-.8-1.7.3-1.2.8-1.7zm4.3 6v15h-4.6v-15h4.6zm10 .6c.9-.5 1.9-.8 2.9-.8v4.9h-1.3c-1.2 0-2.2.3-2.8.8-.7.5-1 1.4-1 2.6v6.8h-4.6v-15h4.6V16c.5-.9 1.3-1.6 2.2-2.2zm11.7 0c.9-.5 1.9-.8 3-.8v4.9h-1.3c-1.2 0-2.2.3-2.8.8-.7.5-1 1.4-1 2.6v6.8H89v-15h4.6V16c.6-.9 1.3-1.6 2.2-2.2zm16 .1c1.2.6 2.1 1.5 2.8 2.7s1 2.5 1 4.1-.3 2.9-1 4.1-1.6 2.1-2.8 2.7-2.5.9-4 .9-2.8-.3-4-.9-2.1-1.5-2.8-2.7-1-2.5-1-4.1.3-2.9 1-4.1 1.6-2.1 2.8-2.7 2.5-.9 4-.9 2.8.3 4 .9zm-6.3 4c-.6.6-.9 1.6-.9 2.8s.3 2.1.9 2.7 1.3.9 2.2.9 1.6-.3 2.2-.9.9-1.5.9-2.7-.3-2.1-.9-2.8c-.6-.6-1.3-1-2.2-1-.8.1-1.6.4-2.2 1z" fill="#0c385e"/><path d="M121.9 23.6v4.6h-4.8v-4.6h4.8z" fill="#05b3d7"/></svg>