<svg xmlns="http://www.w3.org/2000/svg" width="112.4" height="56.2" xmlns:v="https://vecta.io/nano"><path d="M28.1 28.1h28.1v28.1H28.1z" fill="#f8fafb"/><path d="M.1 28h28.1v28.1H.1z" fill="#05b3d7"/><path d="M56.2 28.1h28.1v28.1H56.2z" fill="#f2c643"/><path d="M84.3 28h28.1v28.1H84.3z" fill="#f8fafb"/><path d="M112.3 35.1l-7-7h7zm0 7v7l-21-21h7zm0 14l-28-28v7l21 21zm-14 0l-14-14v7l7 7z" fill="#1a5c96"/><circle cx="70.2" cy="42.1" r="7" fill="#f8fafb"/><circle cx="42.2" cy="42.1" r="7" fill="#1a5c96"/><path d="M.074 42.084l14.001-14.001 14.001 14.001-14.001 14.001z" fill="#f8fafb"/><path d="M28.1 0h28.1v28.1H28.1z" fill="#05b3d7"/><path d="M0 .1h28.1v28.1H0z" fill="#357ebf"/><path d="M.1 28.1h0V0h28.1 0C28.1 15.5 15.6 28.1.1 28.1z" fill="#f8fafb"/><path d="M.1 21h0V0h21 0c0 11.6-9.4 21-21 21z" fill="#f2c643"/><path d="M28.102 14.009L42.103.009l14.001 14.001L42.103 28.01z" fill="#f8fafb"/></svg>