<?xml version="1.0" standalone="no"?>
<!DOCTYPE svg PUBLIC "-//W3C//DTD SVG 20010904//EN"
 "http://www.w3.org/TR/2001/REC-SVG-20010904/DTD/svg10.dtd">
<svg version="1.0" xmlns="http://www.w3.org/2000/svg"
 width="118.000000pt" height="58.000000pt" viewBox="0 0 118.000000 58.000000"
 preserveAspectRatio="xMidYMid meet">

<g transform="translate(0.000000,58.000000) scale(0.100000,-0.100000)"
fill="#000000" stroke="none">
<path d="M300 385 l-45 -24 115 0 115 0 -45 24 c-25 13 -56 24 -70 24 -14 0
-45 -11 -70 -24z"/>
<path d="M569 353 c-7 -64 -1 -75 34 -71 31 3 32 4 32 53 0 49 -1 50 -31 53
-30 3 -32 1 -35 -35z m49 5 c-6 -18 -28 -21 -28 -4 0 9 7 16 16 16 9 0 14 -5
12 -12z m-3 -48 c0 -7 -6 -15 -12 -17 -8 -3 -13 4 -13 17 0 13 5 20 13 18 6
-3 12 -11 12 -18z"/>
<path d="M685 340 c-17 -51 -13 -81 6 -47 13 22 35 22 48 0 17 -32 23 -6 9 44
-19 67 -41 68 -63 3z m39 -12 c-9 -14 -23 2 -17 18 4 12 8 13 14 3 4 -7 5 -17
3 -21z"/>
<path d="M790 335 c0 -62 17 -75 22 -17 l3 37 22 -37 c12 -21 27 -38 33 -38 6
0 10 24 10 55 0 59 -17 76 -22 23 l-3 -33 -18 33 c-28 51 -47 42 -47 -23z"/>
<path d="M920 335 c0 -30 5 -55 10 -55 6 0 10 9 10 20 0 11 3 20 8 20 4 0 13
-9 20 -20 20 -32 34 -23 17 11 -15 28 -15 33 0 55 20 31 0 32 -26 2 l-18 -23
-1 23 c0 12 -4 22 -10 22 -5 0 -10 -25 -10 -55z"/>
<path d="M298 333 c39 -2 105 -2 145 0 39 1 7 3 -73 3 -80 0 -112 -2 -72 -3z"/>
<path d="M260 255 c0 -49 3 -66 13 -62 17 5 17 119 0 125 -10 3 -13 -14 -13
-63z"/>
<path d="M324 306 c-9 -25 1 -109 14 -114 9 -3 12 14 12 62 0 61 -13 87 -26
52z"/>
<path d="M390 255 c0 -49 3 -66 13 -62 8 2 12 24 12 62 0 38 -4 60 -12 63 -10
3 -13 -14 -13 -63z"/>
<path d="M454 306 c-9 -25 1 -109 14 -114 9 -3 12 14 12 62 0 61 -13 87 -26
52z"/>
<path d="M577 253 c-2 -5 1 -28 7 -53 13 -53 38 -61 47 -15 6 29 8 28 23 -18
10 -29 28 -15 42 34 17 53 17 59 4 59 -6 0 -13 -13 -16 -30 -8 -37 -22 -39
-26 -3 -5 40 -26 40 -34 -1 -7 -39 -24 -39 -24 -1 0 24 -15 42 -23 28z"/>
<path d="M740 206 c0 -31 5 -56 10 -56 6 0 10 22 10 49 0 28 -4 53 -10 56 -6
4 -10 -15 -10 -49z"/>
<path d="M797 253 c-10 -10 -8 -103 2 -103 5 0 11 9 14 20 3 11 10 20 15 20 6
0 14 -9 17 -20 3 -11 10 -20 14 -20 11 0 8 81 -2 98 -9 13 -49 17 -60 5z m48
-22 c7 -12 -12 -24 -25 -16 -11 7 -4 25 10 25 5 0 11 -4 15 -9z"/>
<path d="M900 205 l0 -55 38 1 c31 1 33 2 13 8 -33 9 -37 28 -9 37 l23 7 -23
8 c-24 9 -22 29 4 29 8 0 14 5 14 10 0 6 -13 10 -30 10 -30 0 -30 -1 -30 -55z"/>
<path d="M298 173 c39 -2 105 -2 145 0 39 1 7 3 -73 3 -80 0 -112 -2 -72 -3z"/>
<path d="M220 140 c0 -6 58 -10 155 -10 97 0 155 4 155 10 0 6 -58 10 -155 10
-97 0 -155 -4 -155 -10z"/>
</g>
</svg>
